<?xml version="1.0"?>
<svg xmlns="http://www.w3.org/2000/svg" xmlns:xlink="http://www.w3.org/1999/xlink" version="1.1" viewBox="0 0 192 192" width="50px" height="50px"><g fill="none" fill-rule="nonzero" stroke="none" stroke-width="1" stroke-linecap="butt" stroke-linejoin="miter" stroke-miterlimit="10" stroke-dasharray="" stroke-dashoffset="0" font-family="none" font-weight="none" font-size="none" text-anchor="none" style="mix-blend-mode: normal"><path d="M0,192v-192h192v192z" fill="none"/><g fill="#ffffff"><path d="M157.44,15.36h-122.88c-10.5984,0 -19.2,8.6016 -19.2,19.2v122.88c0,10.5984 8.6016,19.2 19.2,19.2h122.88c10.5984,0 19.2,-8.6016 19.2,-19.2v-122.88c0,-10.5984 -8.6016,-19.2 -19.2,-19.2zM142.08,72.96h-7.68c-8.2176,0 -11.52,1.92 -11.52,7.68v11.52h19.2l-3.84,19.2h-15.36v57.6h-19.2v-57.6h-15.36v-19.2h15.36v-11.52c0,-15.36 7.68,-26.88 23.04,-26.88c11.136,0 15.36,3.84 15.36,3.84z"/></g></g></svg>
