<?xml version="1.0"?>
<svg xmlns="http://www.w3.org/2000/svg" xmlns:xlink="http://www.w3.org/1999/xlink" version="1.1" viewBox="0 0 192 192" width="50px" height="50px"><g fill="none" fill-rule="nonzero" stroke="none" stroke-width="1" stroke-linecap="butt" stroke-linejoin="miter" stroke-miterlimit="10" stroke-dasharray="" stroke-dashoffset="0" font-family="none" font-weight="none" font-size="none" text-anchor="none" style="mix-blend-mode: normal"><path d="M0,192v-192h192v192z" fill="none"/><g fill="#ffffff"><path d="M68.31744,179.85024c2.73024,-1.17504 4.64256,-3.88992 4.64256,-7.05024v-20.736c0,-0.75648 0.06144,-1.54368 0.15744,-2.3424c-0.05376,0.01536 -0.10368,0.02688 -0.15744,0.0384c0,0 -11.52,0 -13.824,0c-5.76,0 -10.752,-2.304 -13.056,-6.912c-2.688,-4.992 -3.84,-13.44 -10.752,-18.048c-1.152,-0.768 -0.384,-1.92 1.92,-1.92c2.304,0.384 7.296,3.456 10.368,7.68c3.456,4.224 6.912,7.68 13.056,7.68c9.55008,0 14.6688,-0.48 17.74848,-2.1312c3.58656,-5.33376 8.55168,-9.3888 13.73952,-9.3888v-0.096c-21.76512,-0.69888 -35.66976,-7.93344 -42.144,-19.104c-14.0736,0.16128 -26.32704,1.5552 -33.31968,2.71488c-0.22272,-1.25568 -0.41472,-2.51904 -0.57984,-3.79008c6.90048,-1.13664 18.59712,-2.48448 32.0448,-2.74176c-0.43008,-1.05984 -0.80256,-2.14656 -1.11744,-3.26016c-13.48224,-0.68352 -25.11744,-0.14976 -31.43808,0.37248c-0.0768,-1.27488 -0.18048,-2.54592 -0.19584,-3.83616c6.33216,-0.5184 17.65248,-1.0368 30.78912,-0.42624c-0.30336,-1.92 -0.4992,-3.88224 -0.4992,-5.92512c0,-6.528 2.304,-13.44 6.528,-19.2c-1.92,-6.528 -4.608,-20.352 0.768,-25.344c10.368,0 17.664,4.992 21.12,8.064c6.52416,-2.69184 13.82016,-4.22784 21.88416,-4.22784c8.064,0 15.36,1.536 21.504,4.224c3.456,-3.072 10.752,-8.064 21.12,-8.064c5.76,5.376 2.688,19.2 0.768,25.344c4.224,5.76 6.528,12.288 6.144,19.2c0,1.85856 -0.1728,3.65184 -0.4224,5.41056c13.43616,-0.66048 25.06368,-0.13056 31.50336,0.39168c-0.00768,1.29408 -0.12672,2.55744 -0.19584,3.83616c-6.41664,-0.52992 -18.336,-1.0752 -32.09856,-0.34176c-0.34176,1.29024 -0.75648,2.54592 -1.248,3.7632c13.61664,0.17664 25.5936,1.49376 32.82432,2.64576c-0.16512,1.27488 -0.35712,2.53824 -0.57984,3.79008c-7.34208,-1.17504 -19.85664,-2.54976 -34.09536,-2.61888c-6.3936,11.05152 -20.0448,18.2592 -41.38368,19.10016v0.11904c9.984,0 19.2,14.976 19.2,25.344v20.736c0,3.16032 1.91232,5.8752 4.64256,7.05024c35.17824,-11.64288 60.63744,-44.82048 60.63744,-83.85024c0,-48.69888 -39.61728,-88.32 -88.32,-88.32c-48.70272,0 -88.32,39.62112 -88.32,88.32c0,39.02976 25.4592,72.20736 60.63744,83.85024z"/></g></g></svg>
