<?xml version="1.0"?>
<svg xmlns="http://www.w3.org/2000/svg" xmlns:xlink="http://www.w3.org/1999/xlink" version="1.1" viewBox="0 0 192 192" width="50px" height="50px"><g fill="none" fill-rule="nonzero" stroke="none" stroke-width="1" stroke-linecap="butt" stroke-linejoin="miter" stroke-miterlimit="10" stroke-dasharray="" stroke-dashoffset="0" font-family="none" font-weight="none" font-size="none" text-anchor="none" style="mix-blend-mode: normal"><path d="M0,192v-192h192v192z" fill="none"/><g fill="#ffffff"><path d="M157.44,15.36h-122.88c-10.5984,0 -19.2,8.6016 -19.2,19.2v122.88c0,10.5984 8.6016,19.2 19.2,19.2h122.88c10.5984,0 19.2,-8.6016 19.2,-19.2v-122.88c0,-10.5984 -8.6016,-19.2 -19.2,-19.2zM65.28,76.8v72.96h-23.04v-72.96zM42.24,55.5648c0,-5.376 4.608,-9.4848 11.52,-9.4848c6.912,0 11.2512,4.1088 11.52,9.4848c0,5.376 -4.3008,9.7152 -11.52,9.7152c-6.912,0 -11.52,-4.3392 -11.52,-9.7152zM149.76,149.76h-23.04c0,0 0,-35.5584 0,-38.4c0,-7.68 -3.84,-15.36 -13.44,-15.5136h-0.3072c-9.2928,0 -13.1328,7.9104 -13.1328,15.5136c0,3.4944 0,38.4 0,38.4h-23.04v-72.96h23.04v9.8304c0,0 7.4112,-9.8304 22.3104,-9.8304c15.2448,0 27.6096,10.4832 27.6096,31.7184z"/></g></g></svg>
